<svg width="102" height="19" fill="none" xmlns="http://www.w3.org/2000/svg"><path d="M.27 4.277V1.195h14.226v3.082H9.023V18H5.73V4.277H.27zM15.578 18V.48h3.105v6.622c.68-1.024 1.711-1.536 3.094-1.536 1.274 0 2.246.407 2.918 1.22.68.804 1.02 1.91 1.02 3.316V18h-3.153v-7.219c0-.71-.148-1.254-.445-1.629-.289-.375-.715-.562-1.277-.562-.633 0-1.153.254-1.559.762-.398.507-.598 1.246-.598 2.214V18h-3.105zm12.449 0V5.836h2.695l.282 1.945c.226-.601.632-1.097 1.218-1.488.594-.39 1.371-.586 2.332-.586v3.129c-.992 0-1.797.238-2.414.715-.61.484-.937 1.238-.984 2.261V18h-3.129zm7.668-15.738c0-.516.183-.953.55-1.313A1.84 1.84 0 0137.583.41c.515 0 .96.18 1.335.54.375.359.563.796.563 1.312 0 .523-.188.96-.563 1.312a1.86 1.86 0 01-1.335.528c-.532 0-.98-.176-1.348-.528a1.759 1.759 0 01-.54-1.312zM36.023 18V5.836h3.129V18h-3.129zm4.164-12.164h3.363l2.38 7.465.233 1.054.247-1.054 2.378-7.465h3.375L47.757 18h-3.176L40.187 5.836zm11.886 6.094c0-1.852.559-3.375 1.676-4.57 1.117-1.196 2.574-1.794 4.371-1.794.813 0 1.559.13 2.239.387a4.92 4.92 0 011.78 1.16c.509.508.903 1.172 1.184 1.992.29.813.434 1.747.434 2.801v.961h-8.473c.047.813.336 1.473.868 1.98.53.5 1.218.75 2.062.75.602 0 1.117-.12 1.547-.363.43-.25.73-.601.902-1.054h3.024c-.375 1.304-1.035 2.312-1.98 3.023-.938.711-2.134 1.067-3.587 1.067-1.804 0-3.265-.579-4.383-1.735-1.109-1.156-1.664-2.691-1.664-4.605zm3.235-1.23h5.308c-.015-.766-.257-1.38-.726-1.84-.461-.47-1.074-.704-1.84-.704s-1.398.235-1.898.703c-.493.47-.774 1.082-.844 1.84zm8.898-2.04V5.836h1.992l.024-2.953h3.14l-.023 2.953h2.789V8.66h-2.813l-.046 4.922c0 .633.117 1.086.351 1.36.234.265.645.398 1.23.398.43 0 .856-.059 1.278-.176v2.742c-.469.172-1.125.258-1.969.258-1.367 0-2.379-.3-3.035-.902-.656-.602-.98-1.578-.973-2.93l.047-5.672h-1.992zm8.852 6.106c0-.579.09-1.082.269-1.512.188-.438.457-.797.809-1.078a4.343 4.343 0 011.172-.668 7.443 7.443 0 011.511-.399l3.153-.574v-.457c0-.594-.149-1.05-.446-1.371-.289-.32-.71-.48-1.265-.48-.524 0-.957.148-1.301.445-.344.297-.516.687-.516 1.172h-3.023c.07-1.266.539-2.293 1.406-3.082.875-.797 2.02-1.196 3.434-1.196 1.484 0 2.66.38 3.527 1.137.867.75 1.3 1.852 1.3 3.305V18h-2.66l-.199-1.488c-.765 1.172-1.925 1.758-3.48 1.758-1.094 0-1.984-.317-2.672-.95-.68-.633-1.02-1.484-1.02-2.554zm3.117-.27c0 .367.125.66.375.879.25.21.597.316 1.043.316a2.238 2.238 0 001.945-1.102c.289-.437.434-.972.434-1.605v-.363l-2.426.504c-.446.102-.785.258-1.02.469-.234.21-.351.511-.351.902zM85.307 18V.48h3.13V18h-3.13zm5.653 0V.48h3.128v10.278l3.551-4.922h3.715l-3.574 5.11L101.975 18h-3.55L95.6 13.348l-1.512 1.921V18H90.96z" fill="#62D0DF"/></svg>